# Blender 4.2.3 LTS
# www.blender.org
mtllib cart.mtl
o Cube
v -0.991288 -1.003237 -3.953789
v -0.991288 -1.003237 -9.375239
v 0.028841 -1.003237 -3.953789
v 0.028841 0.996763 -3.953789
v 0.028841 -1.003237 -9.375239
v 0.028841 0.996763 -9.375239
v 0.028841 0.996763 -3.953789
v -0.991288 -0.043442 -3.953789
v -0.130742 0.983957 -3.953789
v -0.286396 0.945852 -3.953789
v -0.434288 0.883388 -3.953789
v -0.570776 0.798102 -3.953789
v -0.692499 0.692094 -3.953789
v -0.796461 0.567975 -3.953789
v -0.880101 0.428801 -3.953789
v -0.941359 0.277999 -3.953789
v -0.978729 0.119282 -3.953789
v -0.991288 -0.043442 -9.375239
v 0.028841 0.996763 -9.375239
v -0.978729 0.119282 -9.375239
v -0.941359 0.277999 -9.375239
v -0.880101 0.428801 -9.375239
v -0.796461 0.567975 -9.375239
v -0.692499 0.692094 -9.375239
v -0.570776 0.798102 -9.375239
v -0.434288 0.883388 -9.375239
v -0.286396 0.945852 -9.375239
v -0.130742 0.983957 -9.375239
v 1.008712 -1.003237 -3.953789
v 1.008712 -1.003237 -9.375239
v -0.011417 -1.003237 -3.953789
v -0.011417 0.996763 -3.953789
v -0.011417 -1.003237 -9.375239
v -0.011417 0.996763 -9.375239
v -0.011417 0.996763 -3.953789
v 1.008712 -0.043442 -3.953789
v 0.148166 0.983957 -3.953789
v 0.303820 0.945852 -3.953789
v 0.451712 0.883388 -3.953789
v 0.588200 0.798102 -3.953789
v 0.709923 0.692094 -3.953789
v 0.813884 0.567975 -3.953789
v 0.897524 0.428801 -3.953789
v 0.958783 0.277999 -3.953789
v 0.996152 0.119282 -3.953789
v 1.008712 -0.043442 -9.375239
v -0.011417 0.996763 -9.375239
v 0.996152 0.119282 -9.375239
v 0.958783 0.277999 -9.375239
v 0.897524 0.428801 -9.375239
v 0.813884 0.567975 -9.375239
v 0.709923 0.692094 -9.375239
v 0.588200 0.798102 -9.375239
v 0.451712 0.883388 -9.375239
v 0.303820 0.945852 -9.375239
v 0.148166 0.983957 -9.375239
vn -0.0000 1.0000 -0.0000
vn 1.0000 -0.0000 -0.0000
vn -1.0000 -0.0000 -0.0000
vn -0.0000 -1.0000 -0.0000
vn -0.0000 -0.0000 -1.0000
vn -0.0800 0.9968 -0.0000
vn -0.2378 0.9713 -0.0000
vn -0.3891 0.9212 -0.0000
vn -0.5299 0.8481 -0.0000
vn -0.6567 0.7541 -0.0000
vn -0.7666 0.6421 -0.0000
vn -0.8571 0.5151 -0.0000
vn -0.9265 0.3764 -0.0000
vn -0.9734 0.2292 -0.0000
vn -0.9970 0.0770 -0.0000
vn -0.0000 -0.0000 1.0000
vn 0.0800 0.9968 -0.0000
vn 0.2378 0.9713 -0.0000
vn 0.3891 0.9212 -0.0000
vn 0.5299 0.8481 -0.0000
vn 0.6567 0.7541 -0.0000
vn 0.7666 0.6421 -0.0000
vn 0.8571 0.5151 -0.0000
vn 0.9265 0.3764 -0.0000
vn 0.9734 0.2292 -0.0000
vn 0.9970 0.0770 -0.0000
vt 0.457724 0.448119
vt 0.533180 0.448119
vt 0.000000 0.448119
vt 0.000000 0.177382
vt 0.533180 0.177382
vt 0.509270 0.718856
vt 0.261150 0.718856
vt 0.261150 0.448119
vt 0.509270 0.448119
vt 0.688787 0.650553
vt 0.533180 0.650553
vt 0.533180 0.177382
vt 0.688787 0.177382
vt 0.688787 0.622674
vt 0.688787 0.538906
vt 0.690702 0.524703
vt 0.696402 0.510851
vt 0.705747 0.497689
vt 0.718505 0.485542
vt 0.734363 0.474710
vt 0.752930 0.465458
vt 0.773749 0.458014
vt 0.796308 0.452562
vt 0.820051 0.449237
vt 0.844393 0.448119
vt 0.844393 0.622674
vt 0.688787 0.448119
vt 0.688787 0.177382
vt 0.730249 0.177382
vt 0.730248 0.448119
vt 0.772835 0.177382
vt 0.772835 0.448119
vt 0.815496 0.177382
vt 0.815496 0.448119
vt 0.857183 0.177382
vt 0.857183 0.448119
vt 0.896869 0.177382
vt 0.896869 0.448119
vt 0.051546 0.718856
vt 0.051546 0.448119
vt 0.090403 0.448119
vt 0.090403 0.718856
vt 0.131828 0.448119
vt 0.131828 0.718856
vt 0.174802 0.448119
vt 0.174802 0.718856
vt 0.218266 0.448119
vt 0.218266 0.718856
vt 0.844393 0.622674
vt 0.844393 0.448119
vt 0.868736 0.449237
vt 0.892478 0.452562
vt 0.915037 0.458014
vt 0.935857 0.465458
vt 0.954424 0.474710
vt 0.970282 0.485543
vt 0.983040 0.497689
vt 0.992384 0.510851
vt 0.998084 0.524703
vt 1.000000 0.538906
vt 1.000000 0.622674
s 0
usemtl cart
f 6/1/1 19/1/1 7/1/1 4/1/1
f 5/2/2 6/3/2 4/4/2 3/5/2
f 1/6/3 8/7/3 18/8/3 2/9/3
f 2/10/4 5/11/4 3/12/4 1/13/4
f 2/14/5 18/15/5 20/16/5 21/17/5 22/18/5 23/19/5 24/20/5 25/21/5 26/22/5 27/23/5 28/24/5 19/25/5 6/25/5 5/26/5
f 7/27/6 19/28/6 28/29/6 9/30/6
f 9/30/7 28/29/7 27/31/7 10/32/7
f 10/32/8 27/31/8 26/33/8 11/34/8
f 11/34/9 26/33/9 25/35/9 12/36/9
f 12/36/10 25/35/10 24/37/10 13/38/10
f 13/39/11 24/40/11 23/41/11 14/42/11
f 14/42/12 23/41/12 22/43/12 15/44/12
f 15/44/13 22/43/13 21/45/13 16/46/13
f 16/46/14 21/45/14 20/47/14 17/48/14
f 17/48/15 20/47/15 18/8/15 8/7/15
f 3/49/16 4/50/16 7/50/16 9/51/16 10/52/16 11/53/16 12/54/16 13/55/16 14/56/16 15/57/16 16/58/16 17/59/16 8/60/16 1/61/16
f 34/1/1 32/1/1 35/1/1 47/1/1
f 33/2/3 31/5/3 32/4/3 34/3/3
f 29/6/2 30/9/2 46/8/2 36/7/2
f 30/10/4 29/13/4 31/12/4 33/11/4
f 30/14/5 33/26/5 34/25/5 47/25/5 56/24/5 55/23/5 54/22/5 53/21/5 52/20/5 51/19/5 50/18/5 49/17/5 48/16/5 46/15/5
f 35/27/17 37/30/17 56/29/17 47/28/17
f 37/30/18 38/32/18 55/31/18 56/29/18
f 38/32/19 39/34/19 54/33/19 55/31/19
f 39/34/20 40/36/20 53/35/20 54/33/20
f 40/36/21 41/38/21 52/37/21 53/35/21
f 41/39/22 42/42/22 51/41/22 52/40/22
f 42/42/23 43/44/23 50/43/23 51/41/23
f 43/44/24 44/46/24 49/45/24 50/43/24
f 44/46/25 45/48/25 48/47/25 49/45/25
f 45/48/26 36/7/26 46/8/26 48/47/26
f 31/49/16 29/61/16 36/60/16 45/59/16 44/58/16 43/57/16 42/56/16 41/55/16 40/54/16 39/53/16 38/52/16 37/51/16 35/50/16 32/50/16
