# Blender 4.2.3 LTS
# www.blender.org
mtllib train.mtl
o engine
v -1.000000 -1.000000 -0.848626
v -1.000000 -1.000000 -3.983659
v 0.000000 -1.000000 -0.848626
v 0.000000 1.000000 -0.848626
v 0.000000 -1.000000 -3.983659
v 0.000000 1.000000 -3.983659
v 0.000000 1.000000 -0.848626
v -1.000000 -0.026364 -0.848626
v -0.156503 0.987364 -0.848626
v -0.309073 0.949766 -0.848626
v -0.454035 0.888133 -0.848626
v -0.587819 0.803982 -0.848626
v -0.707130 0.699385 -0.848626
v -0.809032 0.576918 -0.848626
v -0.891015 0.439596 -0.848626
v -0.951060 0.290800 -0.848626
v -0.987689 0.134195 -0.848626
v -1.000000 -0.026364 -3.983659
v 0.000000 1.000000 -3.983659
v -0.987689 0.134195 -3.983659
v -0.951060 0.290800 -3.983659
v -0.891015 0.439596 -3.983659
v -0.809032 0.576918 -3.983659
v -0.707130 0.699385 -3.983659
v -0.587819 0.803982 -3.983659
v -0.454035 0.888133 -3.983659
v -0.309073 0.949766 -3.983659
v -0.156503 0.987364 -3.983659
v 0.000000 0.940752 -0.507086
v 0.000000 -1.000000 -0.507086
v -1.000000 -1.000000 -0.507086
v -0.156503 0.926190 -0.507086
v 0.000000 0.938826 -0.507086
v -0.309073 0.888592 -0.507086
v -0.454035 0.826959 -0.507086
v -0.587819 0.742808 -0.507086
v -0.707130 0.638211 -0.507086
v -0.809032 0.515744 -0.507086
v -0.891015 0.378422 -0.507086
v -0.951060 0.229626 -0.507086
v -0.987689 0.073021 -0.507086
v -1.000000 -0.079471 -0.507086
v 0.000000 0.856702 -0.180912
v 0.000000 -1.000000 -0.180912
v -1.000000 -1.000000 -0.180912
v -0.156503 0.842140 -0.180912
v 0.000000 0.856972 -0.180912
v -0.309073 0.804542 -0.180912
v -0.454035 0.742909 -0.180912
v -0.587819 0.658758 -0.180912
v -0.707130 0.554161 -0.180912
v -0.809032 0.431694 -0.180912
v -0.891015 0.294371 -0.180912
v -0.951060 0.145576 -0.180912
v -0.987689 -0.011029 -0.180912
v -1.000000 -0.203838 -0.180912
v 0.000000 0.695913 0.167633
v 0.000000 -1.000000 0.167633
v -1.000000 -1.000000 0.167633
v -0.156503 0.681214 0.167633
v 0.000000 0.696047 0.167633
v -0.309073 0.643616 0.167633
v -0.454035 0.581983 0.167633
v -0.587819 0.497832 0.167633
v -0.707130 0.393235 0.167633
v -0.809032 0.270768 0.167633
v -0.891015 0.157614 0.167633
v -0.951060 0.016573 0.167633
v -0.987689 -0.177624 0.167633
v -1.000000 -0.381671 0.167633
v 0.000000 0.430707 0.578968
v 0.000000 -1.000000 0.578968
v -1.000000 -1.000000 0.578968
v -0.156503 0.412607 0.578968
v 0.000000 0.427440 0.578968
v -0.309073 0.375009 0.578968
v -0.454035 0.313376 0.578968
v -0.587819 0.229225 0.578968
v -0.707130 0.124628 0.578968
v -0.799032 0.053535 0.583357
v -0.891015 -0.068788 0.578968
v -0.951060 -0.204512 0.578968
v -0.987689 -0.421697 0.578968
v -1.000000 -0.629449 0.578968
v -0.000585 0.061838 0.995325
v -0.000585 -0.999147 0.995325
v -1.000505 -0.999147 0.995325
v -0.157007 0.043737 0.995325
v -0.000585 0.058570 0.995325
v -0.309577 0.006139 0.995325
v -0.454539 -0.055494 0.995325
v -0.588323 -0.139645 0.995325
v -0.707635 -0.244242 0.995325
v -0.799537 -0.344043 0.993095
v -0.891520 -0.476140 0.995325
v -0.951565 -0.649139 0.995325
v -0.988194 -0.796268 0.995325
v -1.000505 -0.937654 0.995325
v -0.000674 -0.451823 1.282792
v -0.000674 -0.999076 1.282792
v -0.969783 -0.992658 1.228209
v -0.157096 -0.469923 1.282792
v -0.000674 -0.455090 1.282792
v -0.309666 -0.507521 1.282792
v -0.454628 -0.569154 1.282792
v -0.588412 -0.653305 1.282792
v -0.707724 -0.757902 1.282792
v -0.799626 -0.857704 1.280562
v -0.891000 -0.993955 1.305936
v -0.000798 -0.993308 1.446364
v -0.000798 -0.998978 1.446364
v -0.157220 -0.995365 1.446364
v -0.000798 -0.998396 1.446364
v -0.309790 -0.998415 1.446364
v -0.454752 -0.994405 1.446364
v -0.590072 -0.999066 1.445350
v -0.698713 -1.000133 1.428751
v -0.792004 -0.996082 1.392859
v 1.000000 -1.000000 -0.848626
v 1.000000 -1.000000 -3.983659
v 1.000000 -0.026364 -0.848626
v 0.156503 0.987364 -0.848626
v 0.309073 0.949766 -0.848626
v 0.454035 0.888133 -0.848626
v 0.587819 0.803982 -0.848626
v 0.707130 0.699385 -0.848626
v 0.809032 0.576918 -0.848626
v 0.891015 0.439596 -0.848626
v 0.951060 0.290800 -0.848626
v 0.987689 0.134195 -0.848626
v 1.000000 -0.026364 -3.983659
v 0.987689 0.134195 -3.983659
v 0.951060 0.290800 -3.983659
v 0.891015 0.439596 -3.983659
v 0.809032 0.576918 -3.983659
v 0.707130 0.699385 -3.983659
v 0.587819 0.803982 -3.983659
v 0.454035 0.888133 -3.983659
v 0.309073 0.949766 -3.983659
v 0.156503 0.987364 -3.983659
v 1.000000 -1.000000 -0.507086
v 0.156503 0.926190 -0.507086
v 0.309073 0.888592 -0.507086
v 0.454035 0.826959 -0.507086
v 0.587819 0.742808 -0.507086
v 0.707130 0.638211 -0.507086
v 0.809032 0.515744 -0.507086
v 0.891015 0.378422 -0.507086
v 0.951060 0.229626 -0.507086
v 0.987689 0.073021 -0.507086
v 1.000000 -0.079471 -0.507086
v 1.000000 -1.000000 -0.180912
v 0.156503 0.842140 -0.180912
v 0.309073 0.804542 -0.180912
v 0.454035 0.742909 -0.180912
v 0.587819 0.658758 -0.180912
v 0.707130 0.554161 -0.180912
v 0.809032 0.431694 -0.180912
v 0.891015 0.294371 -0.180912
v 0.951060 0.145576 -0.180912
v 0.987689 -0.011029 -0.180912
v 1.000000 -0.203838 -0.180912
v 1.000000 -1.000000 0.167633
v 0.156503 0.681214 0.167633
v 0.309073 0.643616 0.167633
v 0.454035 0.581983 0.167633
v 0.587819 0.497832 0.167633
v 0.707130 0.393235 0.167633
v 0.809032 0.270768 0.167633
v 0.891015 0.157614 0.167633
v 0.951060 0.016573 0.167633
v 0.987689 -0.177624 0.167633
v 1.000000 -0.381671 0.167633
v 1.000000 -1.000000 0.578968
v 0.156503 0.412607 0.578968
v 0.309073 0.375009 0.578968
v 0.454035 0.313376 0.578968
v 0.587819 0.229225 0.578968
v 0.707130 0.124628 0.578968
v 0.799032 0.053535 0.583357
v 0.891015 -0.068788 0.578968
v 0.951060 -0.204512 0.578968
v 0.987689 -0.421697 0.578968
v 1.000000 -0.629449 0.578968
v 0.000585 0.061838 0.995325
v 0.000585 -0.999147 0.995325
v 1.000505 -0.999147 0.995325
v 0.157007 0.043737 0.995325
v 0.000585 0.058570 0.995325
v 0.309577 0.006139 0.995325
v 0.454539 -0.055494 0.995325
v 0.588323 -0.139645 0.995325
v 0.707635 -0.244242 0.995325
v 0.799537 -0.344043 0.993095
v 0.891520 -0.476140 0.995325
v 0.951565 -0.649139 0.995325
v 0.988194 -0.796268 0.995325
v 1.000505 -0.937654 0.995325
v 0.000674 -0.451823 1.282792
v 0.000674 -0.999076 1.282792
v 0.969783 -0.992658 1.228209
v 0.157096 -0.469923 1.282792
v 0.000674 -0.455090 1.282792
v 0.309666 -0.507521 1.282792
v 0.454628 -0.569154 1.282792
v 0.588412 -0.653305 1.282792
v 0.707724 -0.757902 1.282792
v 0.799626 -0.857704 1.280562
v 0.891000 -0.993955 1.305936
v 0.000798 -0.993308 1.446364
v 0.000798 -0.998978 1.446364
v 0.157220 -0.995365 1.446364
v 0.000798 -0.998396 1.446364
v 0.309790 -0.998415 1.446364
v 0.454752 -0.994405 1.446364
v 0.590072 -0.999066 1.445350
v 0.698713 -1.000133 1.428751
v 0.792004 -0.996082 1.392859
vn -0.0000 1.0000 -0.0000
vn 1.0000 -0.0000 -0.0000
vn -1.0000 -0.0000 -0.0000
vn -0.0000 -1.0000 -0.0000
vn -0.0000 -0.0000 -1.0000
vn -0.0805 0.9968 -0.0000
vn -0.2393 0.9710 -0.0000
vn -0.3913 0.9203 -0.0000
vn -0.5324 0.8465 -0.0000
vn -0.6592 0.7520 -0.0000
vn -0.7687 0.6396 -0.0000
vn -0.8586 0.5126 -0.0000
vn -0.9273 0.3742 -0.0000
vn -0.9737 0.2277 -0.0000
vn -0.9971 0.0764 -0.0000
vn -0.9972 0.0711 0.0227
vn -0.6533 0.7452 0.1335
vn -0.9968 0.0784 0.0131
vn -0.3861 0.9080 0.1626
vn -0.9253 0.3734 0.0669
vn -0.0792 0.9812 0.1758
vn -0.7637 0.6355 0.1138
vn -0.5264 0.8369 0.1499
vn -0.9729 0.2276 0.0408
vn -0.2357 0.9566 0.1713
vn -0.8550 0.5105 0.0914
vn -0.3807 0.8954 0.2307
vn -0.5202 0.8270 0.2131
vn -0.6472 0.7382 0.1902
vn -0.7585 0.6311 0.1626
vn -0.8512 0.5082 0.1310
vn -0.9231 0.3725 0.0960
vn -0.0847 0.9657 0.2456
vn -0.9720 0.2274 0.0586
vn -0.2321 0.9419 0.2427
vn -0.6454 0.6552 0.3927
vn -0.6228 0.7104 0.3280
vn -0.7372 0.6134 0.2832
vn -0.8147 0.5333 0.2277
vn -0.9142 0.3788 0.1444
vn -0.0857 0.9046 0.4176
vn -0.9752 0.2037 0.0864
vn -0.2183 0.8860 0.4091
vn -0.9976 0.0619 0.0306
vn -0.3601 0.8470 0.3911
vn -0.4959 0.7884 0.3640
vn -0.5589 0.6082 0.5636
vn -0.7674 0.5611 0.3103
vn -0.8966 0.3890 0.2116
vn -0.0791 0.8347 0.5450
vn -0.9797 0.1745 0.0986
vn -0.2021 0.8200 0.5355
vn -0.9976 0.0596 0.0357
vn -0.3354 0.7888 0.5151
vn -0.4660 0.7408 0.4838
vn -0.5917 0.6750 0.4408
vn -0.9914 -0.0000 0.1308
vn 1.0000 -0.0000 0.0014
vn -0.7069 0.5070 0.4931
vn -0.0000 -1.0000 0.0020
vn -0.8741 0.3400 0.3468
vn -0.0708 0.7467 0.6614
vn -0.9627 0.1936 0.1893
vn -0.1814 0.7362 0.6520
vn -0.9959 0.0702 0.0564
vn -0.3033 0.7134 0.6317
vn -1.0000 -0.0000 -0.0014
vn -0.4261 0.6774 0.5996
vn -1.0000 -0.0000 -0.0012
vn -0.5488 0.6260 0.5540
vn -0.4145 0.4985 0.7614
vn -0.3936 0.4490 0.8022
vn -0.4830 0.4277 0.7641
vn 1.0000 -0.0000 0.0003
vn -0.5168 0.4293 0.7407
vn -0.0036 -0.9999 0.0128
vn -0.7541 0.3615 0.5483
vn -0.0463 0.4879 0.8717
vn -0.9343 0.2326 0.2700
vn -0.1195 0.4849 0.8664
vn -0.9849 0.0858 0.1502
vn -0.2033 0.4782 0.8544
vn -1.0000 -0.0000 -0.0003
vn -0.2937 0.4669 0.8341
vn 1.0000 -0.0000 0.0008
vn -0.5649 0.5010 0.6557
vn -0.0058 -1.0000 -0.0031
vn -0.0110 0.2927 0.9561
vn -0.0408 0.3062 0.9511
vn -0.0667 0.3356 0.9397
vn -1.0000 -0.0000 -0.0008
vn -0.1310 0.3865 0.9130
vn -0.2685 0.4449 0.8544
vn -0.0003 -0.9999 -0.0105
vn 0.0805 0.9968 -0.0000
vn 0.2393 0.9710 -0.0000
vn 0.3913 0.9203 -0.0000
vn 0.5324 0.8465 -0.0000
vn 0.6592 0.7520 -0.0000
vn 0.7687 0.6396 -0.0000
vn 0.8586 0.5126 -0.0000
vn 0.9273 0.3742 -0.0000
vn 0.9737 0.2277 -0.0000
vn 0.9971 0.0764 -0.0000
vn 0.9972 0.0711 0.0227
vn 0.6533 0.7452 0.1335
vn 0.9968 0.0784 0.0131
vn 0.3861 0.9080 0.1626
vn 0.9253 0.3734 0.0669
vn 0.0792 0.9812 0.1758
vn 0.7637 0.6355 0.1138
vn 0.5264 0.8369 0.1499
vn 0.9729 0.2276 0.0408
vn 0.2357 0.9566 0.1713
vn 0.8550 0.5105 0.0914
vn 0.3807 0.8954 0.2307
vn 0.5202 0.8270 0.2131
vn 0.6472 0.7382 0.1902
vn 0.7585 0.6311 0.1626
vn 0.8512 0.5082 0.1310
vn 0.9231 0.3725 0.0960
vn 0.0847 0.9657 0.2456
vn 0.9720 0.2274 0.0586
vn 0.2321 0.9419 0.2427
vn 0.6454 0.6552 0.3927
vn 0.6228 0.7104 0.3280
vn 0.7372 0.6134 0.2832
vn 0.8147 0.5333 0.2277
vn 0.9142 0.3788 0.1444
vn 0.0857 0.9046 0.4176
vn 0.9752 0.2037 0.0864
vn 0.2183 0.8860 0.4091
vn 0.9976 0.0619 0.0306
vn 0.3601 0.8470 0.3911
vn 0.4959 0.7884 0.3640
vn 0.5589 0.6082 0.5636
vn 0.7674 0.5611 0.3103
vn 0.8966 0.3890 0.2116
vn 0.0791 0.8347 0.5450
vn 0.9797 0.1745 0.0986
vn 0.2021 0.8200 0.5355
vn 0.9976 0.0596 0.0357
vn 0.3354 0.7888 0.5151
vn 0.4660 0.7408 0.4838
vn 0.5917 0.6750 0.4408
vn 0.9914 -0.0000 0.1308
vn -1.0000 -0.0000 0.0014
vn 0.7069 0.5070 0.4931
vn 0.8741 0.3400 0.3468
vn 0.0708 0.7467 0.6614
vn 0.9627 0.1936 0.1893
vn 0.1814 0.7362 0.6520
vn 0.9959 0.0702 0.0564
vn 0.3033 0.7134 0.6317
vn 1.0000 -0.0000 -0.0014
vn 0.4261 0.6774 0.5996
vn 1.0000 -0.0000 -0.0012
vn 0.5488 0.6260 0.5540
vn 0.4145 0.4985 0.7614
vn 0.3936 0.4490 0.8022
vn 0.4830 0.4277 0.7641
vn -1.0000 -0.0000 0.0003
vn 0.5168 0.4293 0.7407
vn 0.0036 -0.9999 0.0128
vn 0.7541 0.3615 0.5483
vn 0.0463 0.4879 0.8717
vn 0.9343 0.2326 0.2700
vn 0.1195 0.4849 0.8664
vn 0.9849 0.0858 0.1502
vn 0.2033 0.4782 0.8544
vn 1.0000 -0.0000 -0.0003
vn 0.2937 0.4669 0.8341
vn -1.0000 -0.0000 0.0008
vn 0.5649 0.5010 0.6557
vn 0.0058 -1.0000 -0.0031
vn 0.0110 0.2927 0.9561
vn 0.0408 0.3062 0.9511
vn 0.0667 0.3356 0.9397
vn 1.0000 -0.0000 -0.0008
vn 0.1310 0.3865 0.9130
vn 0.2685 0.4449 0.8544
vn 0.0003 -0.9999 -0.0105
vt 0.468208 0.398553
vt 0.468208 0.452034
vt 0.000000 0.452034
vt 0.000000 0.314554
vt 0.468208 0.314554
vt 0.476672 0.590981
vt 0.251823 0.589614
vt 0.251823 0.452402
vt 0.476672 0.453770
vt 0.706559 0.690240
vt 0.476779 0.702131
vt 0.476706 0.562080
vt 0.706486 0.550188
vt 0.468208 0.367197
vt 0.468208 0.292575
vt 0.469857 0.280269
vt 0.474764 0.268267
vt 0.482806 0.256863
vt 0.493788 0.246338
vt 0.507438 0.236952
vt 0.523419 0.228935
vt 0.541339 0.222486
vt 0.560757 0.217762
vt 0.581194 0.214881
vt 0.602146 0.213912
vt 0.602146 0.367197
vt 0.727587 0.565984
vt 0.797733 0.452034
vt 0.818627 0.453625
vt 0.748480 0.567576
vt 0.839547 0.456871
vt 0.769401 0.570821
vt 0.000000 0.590056
vt 0.000000 0.452844
vt 0.019772 0.452550
vt 0.019772 0.589762
vt 0.044317 0.452318
vt 0.044317 0.589529
vt 0.073030 0.452151
vt 0.073030 0.589363
vt 0.105206 0.452056
vt 0.105206 0.589268
vt 0.140051 0.452034
vt 0.140051 0.589246
vt 0.176708 0.452085
vt 0.176708 0.589297
vt 0.214273 0.452209
vt 0.214273 0.589421
vt 0.013870 0.299576
vt 0.468208 0.299576
vt 0.228401 0.604455
vt 0.264087 0.604637
vt 0.292808 0.619087
vt 0.247811 0.618849
vt 0.087158 0.604398
vt 0.058444 0.604564
vt 0.476698 0.546822
vt 0.706478 0.534931
vt 0.789833 0.575640
vt 0.783501 0.592152
vt 0.763069 0.587333
vt 0.190835 0.604331
vt 0.154178 0.604280
vt 0.742149 0.584088
vt 0.721255 0.582496
vt 0.119333 0.604302
vt 0.471203 0.367197
vt 0.468623 0.382903
vt 0.468208 0.382851
vt 0.476672 0.605930
vt 0.033899 0.604796
vt 0.476672 0.620206
vt 0.476672 0.635460
vt 0.333876 0.634592
vt 0.778003 0.609638
vt 0.757571 0.604819
vt 0.471203 0.398546
vt 0.471261 0.398553
vt 0.802942 0.598427
vt 0.797444 0.615913
vt 0.106568 0.618791
vt 0.077854 0.618957
vt 0.138744 0.618696
vt 0.033547 0.285273
vt 0.468208 0.285273
vt 0.173589 0.618674
vt 0.476690 0.532251
vt 0.706470 0.520359
vt 0.210245 0.618725
vt 0.736651 0.601574
vt 0.715710 0.599835
vt 0.811063 0.646937
vt 0.827121 0.655626
vt 0.821154 0.685241
vt 0.807613 0.679881
vt 0.815415 0.623488
vt 0.793092 0.639361
vt 0.175908 0.634177
vt 0.143732 0.634272
vt 0.071188 0.269988
vt 0.468208 0.269988
vt 0.205171 0.634121
vt 0.476682 0.516680
vt 0.706462 0.504789
vt 0.240037 0.634161
vt 0.732299 0.625022
vt 0.711358 0.623284
vt 0.286284 0.634338
vt 0.753219 0.628268
vt 0.773652 0.633087
vt 0.033483 0.285273
vt 0.071157 0.269988
vt 0.820568 0.726769
vt 0.806264 0.719727
vt 0.133274 0.251950
vt 0.468208 0.251950
vt 0.257456 0.652442
vt 0.225693 0.652703
vt 0.476672 0.498305
vt 0.706453 0.486413
vt 0.291094 0.652475
vt 0.728849 0.657967
vt 0.707908 0.656228
vt 0.342650 0.652684
vt 0.749769 0.661212
vt 0.391098 0.652943
vt 0.770201 0.666031
vt 0.644427 0.213921
vt 0.644415 0.213912
vt 0.619116 0.240021
vt 0.618816 0.239794
vt 0.789642 0.672306
vt 0.476672 0.653463
vt 0.462293 0.671597
vt 0.476494 0.671684
vt 0.473822 0.681948
vt 0.219628 0.233691
vt 0.468008 0.233691
vt 0.835999 0.693713
vt 0.835475 0.736137
vt 0.476779 0.479699
vt 0.706559 0.467807
vt 0.393795 0.671321
vt 0.351549 0.671235
vt 0.727500 0.697812
vt 0.706559 0.696074
vt 0.429172 0.671431
vt 0.748420 0.701058
vt 0.768853 0.705877
vt 0.602447 0.273180
vt 0.602146 0.272953
vt 0.788293 0.712151
vt 0.810846 0.764585
vt 0.825150 0.771627
vt 0.824596 0.784942
vt 0.811580 0.786074
vt 0.792875 0.757010
vt 0.339878 0.221085
vt 0.467992 0.221085
vt 0.839547 0.782112
vt 0.476792 0.466856
vt 0.699495 0.457769
vt 0.471112 0.685558
vt 0.732082 0.742671
vt 0.711141 0.740932
vt 0.753002 0.745916
vt 0.773434 0.750735
vt 0.614767 0.314033
vt 0.614467 0.313806
vt 0.466642 0.213912
vt 0.467969 0.213912
vt 0.476817 0.459547
vt 0.681389 0.455234
vt 0.739692 0.783815
vt 0.719134 0.783273
vt 0.759873 0.784746
vt 0.778899 0.785168
vt 0.644883 0.354690
vt 0.644415 0.354337
vt 0.796863 0.786088
vt 0.476819 0.459547
vt 0.476817 0.459547
vt 0.512764 0.457687
vt 0.547823 0.455872
vt 0.581136 0.454148
vt 0.612232 0.452584
vt 0.637197 0.452034
vt 0.658637 0.452528
s 0
usemtl engine
f 6/1/1 19/1/1 7/1/1 4/1/1
f 5/2/2 6/3/2 4/4/2 3/5/2
f 1/6/3 8/7/3 18/8/3 2/9/3
f 2/10/4 5/11/4 3/12/4 1/13/4
f 2/14/5 18/15/5 20/16/5 21/17/5 22/18/5 23/19/5 24/20/5 25/21/5 26/22/5 27/23/5 28/24/5 19/25/5 6/25/5 5/26/5
f 7/27/6 19/28/6 28/29/6 9/30/6
f 9/30/7 28/29/7 27/31/7 10/32/7
f 10/33/8 27/34/8 26/35/8 11/36/8
f 11/36/9 26/35/9 25/37/9 12/38/9
f 12/38/10 25/37/10 24/39/10 13/40/10
f 13/40/11 24/39/11 23/41/11 14/42/11
f 14/42/12 23/41/12 22/43/12 15/44/12
f 15/44/13 22/43/13 21/45/13 16/46/13
f 16/46/14 21/45/14 20/47/14 17/48/14
f 17/48/15 20/47/15 18/8/15 8/7/15
f 3/5/2 4/4/2 29/49/2 30/50/2
f 41/51/16 42/52/16 56/53/16 55/54/16
f 12/38/17 13/40/17 37/55/17 36/56/17
f 17/48/18 8/7/18 42/52/18 41/51/18
f 1/13/4 3/12/4 30/57/4 31/58/4
f 10/32/19 11/59/19 35/60/19 34/61/19
f 15/44/20 16/46/20 40/62/20 39/63/20
f 7/27/21 9/30/21 32/64/21 33/65/21
f 13/40/22 14/42/22 38/66/22 37/55/22
f 4/67/3 7/67/3 33/68/3 29/69/3
f 8/7/3 1/6/3 31/70/3 42/52/3
f 11/36/23 12/38/23 36/56/23 35/71/23
f 16/46/24 17/48/24 41/51/24 40/62/24
f 9/30/25 10/32/25 34/61/25 32/64/25
f 14/42/26 15/44/26 39/63/26 38/66/26
f 56/53/3 45/72/3 59/73/3 70/74/3
f 34/61/27 35/60/27 49/75/27 48/76/27
f 29/69/3 33/68/3 47/77/3 43/78/3
f 35/60/28 36/79/28 50/80/28 49/75/28
f 42/52/3 31/70/3 45/72/3 56/53/3
f 36/56/29 37/55/29 51/81/29 50/82/29
f 37/55/30 38/66/30 52/83/30 51/81/30
f 30/50/2 29/49/2 43/84/2 44/85/2
f 38/66/31 39/63/31 53/86/31 52/83/31
f 31/58/4 30/57/4 44/87/4 45/88/4
f 39/63/32 40/62/32 54/89/32 53/86/32
f 33/65/33 32/64/33 46/90/33 47/91/33
f 40/62/34 41/51/34 55/54/34 54/89/34
f 32/64/35 34/61/35 48/76/35 46/90/35
f 65/92/36 66/93/36 80/94/36 79/95/36
f 50/80/37 51/96/37 65/92/37 64/97/37
f 51/81/38 52/83/38 66/98/38 65/99/38
f 44/85/2 43/84/2 57/100/2 58/101/2
f 52/83/39 53/86/39 67/102/39 66/98/39
f 45/88/4 44/87/4 58/103/4 59/104/4
f 53/86/40 54/89/40 68/105/40 67/102/40
f 47/91/41 46/90/41 60/106/41 61/107/41
f 54/89/42 55/54/42 69/108/42 68/105/42
f 46/90/43 48/76/43 62/109/43 60/106/43
f 55/54/44 56/53/44 70/74/44 69/108/44
f 48/76/45 49/75/45 63/110/45 62/109/45
f 43/84/2 47/111/2 61/112/2 57/100/2
f 49/75/46 50/80/46 64/97/46 63/110/46
f 79/95/47 80/94/47 94/113/47 93/114/47
f 58/101/2 57/100/2 71/115/2 72/116/2
f 66/98/48 67/102/48 81/117/48 80/118/48
f 59/104/4 58/103/4 72/119/4 73/120/4
f 67/102/49 68/105/49 82/121/49 81/117/49
f 61/107/50 60/106/50 74/122/50 75/123/50
f 68/105/51 69/108/51 83/124/51 82/121/51
f 60/106/52 62/109/52 76/125/52 74/122/52
f 69/108/53 70/74/53 84/126/53 83/124/53
f 62/109/54 63/110/54 77/127/54 76/125/54
f 57/128/3 61/129/3 75/130/3 71/131/3
f 63/110/55 64/97/55 78/132/55 77/127/55
f 70/74/3 59/73/3 73/133/3 84/126/3
f 64/97/56 65/92/56 79/95/56 78/132/56
f 98/134/57 87/135/57 101/136/57
f 72/116/58 71/115/58 85/137/58 86/138/58
f 80/94/59 81/139/59 95/140/59 94/113/59
f 73/120/60 72/119/60 86/141/60 87/142/60
f 81/117/61 82/121/61 96/143/61 95/144/61
f 75/123/62 74/122/62 88/145/62 89/146/62
f 82/121/63 83/124/63 97/147/63 96/143/63
f 74/122/64 76/125/64 90/148/64 88/145/64
f 83/124/65 84/126/65 98/134/65 97/147/65
f 76/125/66 77/127/66 91/149/66 90/148/66
f 71/131/67 75/130/67 89/150/67 85/151/67
f 77/127/68 78/132/68 92/152/68 91/149/68
f 84/126/69 73/133/69 87/135/69 98/134/69
f 78/132/70 79/95/70 93/114/70 92/152/70
f 107/153/71 108/154/71 118/155/71 117/156/71
f 92/152/72 93/114/72 107/153/72 106/157/72
f 93/114/73 94/113/73 108/154/73 107/153/73
f 86/138/74 85/137/74 99/158/74 100/159/74
f 94/113/75 95/140/75 109/160/75 108/154/75
f 87/142/76 86/141/76 100/161/76 101/162/76
f 95/144/77 96/143/77 101/136/77 109/163/77
f 89/146/78 88/145/78 102/164/78 103/165/78
f 96/143/79 97/147/79 101/136/79
f 88/145/80 90/148/80 104/166/80 102/164/80
f 97/147/81 98/134/81 101/136/81
f 90/148/82 91/149/82 105/167/82 104/166/82
f 85/151/83 89/150/83 103/168/83 99/169/83
f 91/149/84 92/152/84 106/157/84 105/167/84
f 100/159/85 99/158/85 110/170/85 111/171/85
f 108/154/86 109/160/86 118/155/86
f 101/162/87 100/161/87 111/172/87 109/173/87
f 103/165/88 102/164/88 112/174/88 113/175/88
f 102/164/89 104/166/89 114/176/89 112/174/89
f 104/166/90 105/167/90 115/177/90 114/176/90
f 99/169/91 103/168/91 113/178/91 110/179/91
f 105/167/92 106/157/92 116/180/92 115/177/92
f 106/157/93 107/153/93 117/156/93 116/180/93
f 111/172/94 110/181/94 113/182/94 112/183/94 114/184/94 115/185/94 116/186/94 117/187/94 118/188/94 109/173/94
f 119/6/2 120/9/2 131/8/2 121/7/2
f 120/10/4 119/13/4 3/12/4 5/11/4
f 120/14/5 5/26/5 6/25/5 19/25/5 140/24/5 139/23/5 138/22/5 137/21/5 136/20/5 135/19/5 134/18/5 133/17/5 132/16/5 131/15/5
f 7/27/95 122/30/95 140/29/95 19/28/95
f 122/30/96 123/32/96 139/31/96 140/29/96
f 123/33/97 124/36/97 138/35/97 139/34/97
f 124/36/98 125/38/98 137/37/98 138/35/98
f 125/38/99 126/40/99 136/39/99 137/37/99
f 126/40/100 127/42/100 135/41/100 136/39/100
f 127/42/101 128/44/101 134/43/101 135/41/101
f 128/44/102 129/46/102 133/45/102 134/43/102
f 129/46/103 130/48/103 132/47/103 133/45/103
f 130/48/104 121/7/104 131/8/104 132/47/104
f 150/51/105 161/54/105 162/53/105 151/52/105
f 125/38/106 145/56/106 146/55/106 126/40/106
f 130/48/107 150/51/107 151/52/107 121/7/107
f 119/13/4 141/58/4 30/57/4 3/12/4
f 123/32/108 143/61/108 144/60/108 124/59/108
f 128/44/109 148/63/109 149/62/109 129/46/109
f 7/27/110 33/65/110 142/64/110 122/30/110
f 126/40/111 146/55/111 147/66/111 127/42/111
f 121/7/2 151/52/2 141/70/2 119/6/2
f 124/36/112 144/71/112 145/56/112 125/38/112
f 129/46/113 149/62/113 150/51/113 130/48/113
f 122/30/114 142/64/114 143/61/114 123/32/114
f 127/42/115 147/66/115 148/63/115 128/44/115
f 162/53/2 173/74/2 163/73/2 152/72/2
f 143/61/116 154/76/116 155/75/116 144/60/116
f 144/60/117 155/75/117 156/80/117 145/79/117
f 151/52/2 162/53/2 152/72/2 141/70/2
f 145/56/118 156/82/118 157/81/118 146/55/118
f 146/55/119 157/81/119 158/83/119 147/66/119
f 147/66/120 158/83/120 159/86/120 148/63/120
f 141/58/4 152/88/4 44/87/4 30/57/4
f 148/63/121 159/86/121 160/89/121 149/62/121
f 33/65/122 47/91/122 153/90/122 142/64/122
f 149/62/123 160/89/123 161/54/123 150/51/123
f 142/64/124 153/90/124 154/76/124 143/61/124
f 168/92/125 179/95/125 180/94/125 169/93/125
f 156/80/126 167/97/126 168/92/126 157/96/126
f 157/81/127 168/99/127 169/98/127 158/83/127
f 158/83/128 169/98/128 170/102/128 159/86/128
f 152/88/4 163/104/4 58/103/4 44/87/4
f 159/86/129 170/102/129 171/105/129 160/89/129
f 47/91/130 61/107/130 164/106/130 153/90/130
f 160/89/131 171/105/131 172/108/131 161/54/131
f 153/90/132 164/106/132 165/109/132 154/76/132
f 161/54/133 172/108/133 173/74/133 162/53/133
f 154/76/134 165/109/134 166/110/134 155/75/134
f 155/75/135 166/110/135 167/97/135 156/80/135
f 179/95/136 193/114/136 194/113/136 180/94/136
f 169/98/137 180/118/137 181/117/137 170/102/137
f 163/104/4 174/120/4 72/119/4 58/103/4
f 170/102/138 181/117/138 182/121/138 171/105/138
f 61/107/139 75/123/139 175/122/139 164/106/139
f 171/105/140 182/121/140 183/124/140 172/108/140
f 164/106/141 175/122/141 176/125/141 165/109/141
f 172/108/142 183/124/142 184/126/142 173/74/142
f 165/109/143 176/125/143 177/127/143 166/110/143
f 166/110/144 177/127/144 178/132/144 167/97/144
f 173/74/2 184/126/2 174/133/2 163/73/2
f 167/97/145 178/132/145 179/95/145 168/92/145
f 198/134/146 201/136/146 187/135/146
f 72/116/147 186/138/147 185/137/147 71/115/147
f 180/94/148 194/113/148 195/140/148 181/139/148
f 174/120/60 187/142/60 186/141/60 72/119/60
f 181/117/149 195/144/149 196/143/149 182/121/149
f 75/123/150 189/146/150 188/145/150 175/122/150
f 182/121/151 196/143/151 197/147/151 183/124/151
f 175/122/152 188/145/152 190/148/152 176/125/152
f 183/124/153 197/147/153 198/134/153 184/126/153
f 176/125/154 190/148/154 191/149/154 177/127/154
f 71/131/155 185/151/155 189/150/155 75/130/155
f 177/127/156 191/149/156 192/152/156 178/132/156
f 184/126/157 198/134/157 187/135/157 174/133/157
f 178/132/158 192/152/158 193/114/158 179/95/158
f 207/153/159 217/156/159 218/155/159 208/154/159
f 192/152/160 206/157/160 207/153/160 193/114/160
f 193/114/161 207/153/161 208/154/161 194/113/161
f 186/138/162 200/159/162 199/158/162 185/137/162
f 194/113/163 208/154/163 209/160/163 195/140/163
f 187/142/164 201/162/164 200/161/164 186/141/164
f 195/144/165 209/163/165 201/136/165 196/143/165
f 189/146/166 203/165/166 202/164/166 188/145/166
f 196/143/167 201/136/167 197/147/167
f 188/145/168 202/164/168 204/166/168 190/148/168
f 197/147/169 201/136/169 198/134/169
f 190/148/170 204/166/170 205/167/170 191/149/170
f 185/151/171 199/169/171 203/168/171 189/150/171
f 191/149/172 205/167/172 206/157/172 192/152/172
f 200/159/173 211/171/173 210/170/173 199/158/173
f 208/154/174 218/155/174 209/160/174
f 201/162/175 209/173/175 211/172/175 200/161/175
f 203/165/176 213/175/176 212/174/176 202/164/176
f 202/164/177 212/174/177 214/176/177 204/166/177
f 204/166/178 214/176/178 215/177/178 205/167/178
f 199/169/179 210/179/179 213/178/179 203/168/179
f 205/167/180 215/177/180 216/180/180 206/157/180
f 206/157/181 216/180/181 217/156/181 207/153/181
f 211/172/182 209/173/182 218/188/182 217/187/182 216/186/182 215/185/182 214/184/182 212/183/182 213/182/182 210/181/182
